<svg width="58" height="51" viewBox="0 0 58 51" fill="none" xmlns="http://www.w3.org/2000/svg">
<g clip-path="url(#clip0_1_57)">
<rect width="58" height="51" fill="white"/>
<g filter="url(#filter0_bdi_1_57)">
<g clip-path="url(#clip1_1_57)">
<rect x="5" y="2" width="48" height="48" rx="12" fill="url(#paint0_linear_1_57)" fill-opacity="0.04" shape-rendering="crispEdges"/>
<g style="mix-blend-mode:plus-lighter" opacity="0.5" filter="url(#filter1_f_1_57)">
<rect x="15" y="12" width="28" height="28" rx="6" fill="url(#paint1_radial_1_57)"/>
<rect x="15" y="12" width="28" height="28" rx="6" fill="url(#paint2_radial_1_57)"/>
<rect x="15" y="12" width="28" height="28" rx="6" fill="url(#paint3_radial_1_57)"/>
</g>
<rect x="15" y="12" width="28" height="28" rx="6" fill="url(#paint4_radial_1_57)"/>
<rect x="15" y="12" width="28" height="28" rx="6" fill="url(#paint5_radial_1_57)"/>
<rect x="15" y="12" width="28" height="28" rx="6" fill="url(#paint6_radial_1_57)"/>
<path d="M36 20.5C36 21.3284 35.3284 22 34.5 22C33.6716 22 33 21.3284 33 20.5C33 19.6716 33.6716 19 34.5 19C35.3284 19 36 19.6716 36 20.5Z" fill="white"/>
<path fill-rule="evenodd" clip-rule="evenodd" d="M29 31C31.7614 31 34 28.7614 34 26C34 23.2386 31.7614 21 29 21C26.2386 21 24 23.2386 24 26C24 28.7614 26.2386 31 29 31ZM29 29C30.6569 29 32 27.6569 32 26C32 24.3431 30.6569 23 29 23C27.3431 23 26 24.3431 26 26C26 27.6569 27.3431 29 29 29Z" fill="white"/>
<path fill-rule="evenodd" clip-rule="evenodd" d="M19 25.6C19 22.2397 19 20.5595 19.654 19.2761C20.2292 18.1471 21.1471 17.2292 22.2761 16.654C23.5595 16 25.2397 16 28.6 16H29.4C32.7603 16 34.4405 16 35.7239 16.654C36.8529 17.2292 37.7708 18.1471 38.346 19.2761C39 20.5595 39 22.2397 39 25.6V26.4C39 29.7603 39 31.4405 38.346 32.7239C37.7708 33.8529 36.8529 34.7708 35.7239 35.346C34.4405 36 32.7603 36 29.4 36H28.6C25.2397 36 23.5595 36 22.2761 35.346C21.1471 34.7708 20.2292 33.8529 19.654 32.7239C19 31.4405 19 29.7603 19 26.4V25.6ZM28.6 18H29.4C31.1132 18 32.2777 18.0016 33.1779 18.0751C34.0548 18.1467 34.5032 18.2766 34.816 18.436C35.5686 18.8195 36.1805 19.4314 36.564 20.184C36.7234 20.4968 36.8533 20.9452 36.9249 21.8221C36.9984 22.7223 37 23.8868 37 25.6V26.4C37 28.1132 36.9984 29.2777 36.9249 30.1779C36.8533 31.0548 36.7234 31.5032 36.564 31.816C36.1805 32.5686 35.5686 33.1805 34.816 33.564C34.5032 33.7234 34.0548 33.8533 33.1779 33.9249C32.2777 33.9984 31.1132 34 29.4 34H28.6C26.8868 34 25.7223 33.9984 24.8221 33.9249C23.9452 33.8533 23.4968 33.7234 23.184 33.564C22.4314 33.1805 21.8195 32.5686 21.436 31.816C21.2766 31.5032 21.1467 31.0548 21.0751 30.1779C21.0016 29.2777 21 28.1132 21 26.4V25.6C21 23.8868 21.0016 22.7223 21.0751 21.8221C21.1467 20.9452 21.2766 20.4968 21.436 20.184C21.8195 19.4314 22.4314 18.8195 23.184 18.436C23.4968 18.2766 23.9452 18.1467 24.8221 18.0751C25.7223 18.0016 26.8868 18 28.6 18Z" fill="white"/>
<g filter="url(#filter2_f_1_57)">
<ellipse cx="29.5" cy="49.5" rx="11.5" ry="6.5" fill="#291560"/>
</g>
</g>
<rect x="5" y="2" width="48" height="48" rx="12" stroke="url(#paint7_linear_1_57)" stroke-opacity="0.5" stroke-width="0.8" shape-rendering="crispEdges"/>
</g>
</g>
<defs>
<filter id="filter0_bdi_1_57" x="-15.4" y="-18.4" width="92.8" height="88.8" filterUnits="userSpaceOnUse" color-interpolation-filters="sRGB">
<feFlood flood-opacity="0" result="BackgroundImageFix"/>
<feGaussianBlur in="BackgroundImageFix" stdDeviation="10"/>
<feComposite in2="SourceAlpha" operator="in" result="effect1_backgroundBlur_1_57"/>
<feColorMatrix in="SourceAlpha" type="matrix" values="0 0 0 0 0 0 0 0 0 0 0 0 0 0 0 0 0 0 127 0" result="hardAlpha"/>
<feOffset dx="8" dy="4"/>
<feGaussianBlur stdDeviation="8"/>
<feComposite in2="hardAlpha" operator="out"/>
<feColorMatrix type="matrix" values="0 0 0 0 0 0 0 0 0 0 0 0 0 0 0 0 0 0 0.08 0"/>
<feBlend mode="normal" in2="effect1_backgroundBlur_1_57" result="effect2_dropShadow_1_57"/>
<feBlend mode="normal" in="SourceGraphic" in2="effect2_dropShadow_1_57" result="shape"/>
<feColorMatrix in="SourceAlpha" type="matrix" values="0 0 0 0 0 0 0 0 0 0 0 0 0 0 0 0 0 0 127 0" result="hardAlpha"/>
<feOffset/>
<feGaussianBlur stdDeviation="4"/>
<feComposite in2="hardAlpha" operator="arithmetic" k2="-1" k3="1"/>
<feColorMatrix type="matrix" values="0 0 0 0 0.744549 0 0 0 0 0.0509804 0 0 0 0 0.988235 0 0 0 0.32 0"/>
<feBlend mode="normal" in2="shape" result="effect3_innerShadow_1_57"/>
</filter>
<filter id="filter1_f_1_57" x="1" y="-2" width="56" height="56" filterUnits="userSpaceOnUse" color-interpolation-filters="sRGB">
<feFlood flood-opacity="0" result="BackgroundImageFix"/>
<feBlend mode="normal" in="SourceGraphic" in2="BackgroundImageFix" result="shape"/>
<feGaussianBlur stdDeviation="6" result="effect1_foregroundBlur_1_57"/>
</filter>
<filter id="filter2_f_1_57" x="0" y="25" width="59" height="49" filterUnits="userSpaceOnUse" color-interpolation-filters="sRGB">
<feFlood flood-opacity="0" result="BackgroundImageFix"/>
<feBlend mode="normal" in="SourceGraphic" in2="BackgroundImageFix" result="shape"/>
<feGaussianBlur stdDeviation="9" result="effect1_foregroundBlur_1_57"/>
</filter>
<linearGradient id="paint0_linear_1_57" x1="5" y1="2" x2="53" y2="50" gradientUnits="userSpaceOnUse">
<stop stop-color="#F8FBFF"/>
<stop offset="1" stop-color="white" stop-opacity="0"/>
</linearGradient>
<radialGradient id="paint1_radial_1_57" cx="0" cy="0" r="1" gradientUnits="userSpaceOnUse" gradientTransform="translate(25 33) rotate(-55.3758) scale(25.5196)">
<stop stop-color="#B13589"/>
<stop offset="0.79309" stop-color="#C62F94"/>
<stop offset="1" stop-color="#8A3AC8"/>
</radialGradient>
<radialGradient id="paint2_radial_1_57" cx="0" cy="0" r="1" gradientUnits="userSpaceOnUse" gradientTransform="translate(24 41) rotate(-65.1363) scale(22.5942)">
<stop stop-color="#E0E8B7"/>
<stop offset="0.444662" stop-color="#FB8A2E"/>
<stop offset="0.71474" stop-color="#E2425C"/>
<stop offset="1" stop-color="#E2425C" stop-opacity="0"/>
</radialGradient>
<radialGradient id="paint3_radial_1_57" cx="0" cy="0" r="1" gradientUnits="userSpaceOnUse" gradientTransform="translate(13.5 13) rotate(-8.1301) scale(38.8909 8.31836)">
<stop offset="0.156701" stop-color="#406ADC"/>
<stop offset="0.467799" stop-color="#6A45BE"/>
<stop offset="1" stop-color="#6A45BE" stop-opacity="0"/>
</radialGradient>
<radialGradient id="paint4_radial_1_57" cx="0" cy="0" r="1" gradientUnits="userSpaceOnUse" gradientTransform="translate(25 33) rotate(-55.3758) scale(25.5196)">
<stop stop-color="#B13589"/>
<stop offset="0.79309" stop-color="#C62F94"/>
<stop offset="1" stop-color="#8A3AC8"/>
</radialGradient>
<radialGradient id="paint5_radial_1_57" cx="0" cy="0" r="1" gradientUnits="userSpaceOnUse" gradientTransform="translate(24 41) rotate(-65.1363) scale(22.5942)">
<stop stop-color="#E0E8B7"/>
<stop offset="0.444662" stop-color="#FB8A2E"/>
<stop offset="0.71474" stop-color="#E2425C"/>
<stop offset="1" stop-color="#E2425C" stop-opacity="0"/>
</radialGradient>
<radialGradient id="paint6_radial_1_57" cx="0" cy="0" r="1" gradientUnits="userSpaceOnUse" gradientTransform="translate(13.5 13) rotate(-8.1301) scale(38.8909 8.31836)">
<stop offset="0.156701" stop-color="#406ADC"/>
<stop offset="0.467799" stop-color="#6A45BE"/>
<stop offset="1" stop-color="#6A45BE" stop-opacity="0"/>
</radialGradient>
<linearGradient id="paint7_linear_1_57" x1="6" y1="1" x2="51.5" y2="50" gradientUnits="userSpaceOnUse">
<stop stop-color="#D8D8D8" stop-opacity="0.05"/>
<stop offset="1" stop-color="white" stop-opacity="0.4"/>
</linearGradient>
<clipPath id="clip0_1_57">
<rect width="58" height="51" fill="white"/>
</clipPath>
<clipPath id="clip1_1_57">
<rect x="5" y="2" width="48" height="48" rx="12" fill="white"/>
</clipPath>
</defs>
</svg>
