<svg width="58" height="51" viewBox="0 0 58 51" fill="none" xmlns="http://www.w3.org/2000/svg">
<g clip-path="url(#clip0_1_57)">
<rect width="58" height="51" fill="white"/>
<g filter="url(#filter0_bdi_1_57)">
<g clip-path="url(#clip1_1_57)">
<rect x="5" y="2" width="48" height="48" rx="12" fill="url(#paint0_linear_1_57)" fill-opacity="0.04" shape-rendering="crispEdges"/>
<g style="mix-blend-mode:plus-lighter" opacity="0.5" filter="url(#filter1_f_1_57)">
<path d="M21.4508 29.7926C21.6071 28.4987 22.1378 27.7742 23.1378 27.0316C24.5687 26.0258 26.356 26.5948 26.356 26.5948V23.2196C26.7905 23.2085 27.2252 23.2342 27.655 23.2966V27.6401C27.655 27.6401 25.8682 27.0711 24.4373 28.0774C23.4379 28.8196 22.9061 29.5445 22.7504 30.8384C22.7455 31.541 22.8774 32.4594 23.4845 33.2536C23.3344 33.1766 23.1814 33.0889 23.0255 32.9904C21.688 32.0923 21.4443 30.7448 21.4508 29.7926ZM35.035 16.9789C34.0507 15.9003 33.6785 14.8113 33.5439 14.0463H34.7822C34.7822 14.0463 34.5353 16.0522 36.3346 18.0248L36.3595 18.0513C35.8746 17.7462 35.4299 17.3862 35.035 16.9789ZM40.9999 20.0369V24.293C40.9999 24.293 39.4199 24.2311 38.2505 23.9336C36.6178 23.5176 35.5684 22.8795 35.5684 22.8795C35.5684 22.8795 34.8435 22.4244 34.7849 22.3927V31.1816C34.7849 31.671 34.6509 32.8932 34.2423 33.9125C33.7089 35.2459 32.8858 36.1211 32.7344 36.3C32.7344 36.3 31.7333 37.4832 29.9671 38.2799C28.3751 38.9986 26.9773 38.9804 26.5595 38.9986C26.5595 38.9986 24.1433 39.0943 21.969 37.6813C21.4989 37.3699 21.06 37.0171 20.6581 36.6277L20.6689 36.6355C22.8437 38.0485 25.2594 37.9528 25.2594 37.9528C25.6778 37.9346 27.0755 37.9528 28.667 37.2341C30.4315 36.4373 31.4343 35.2542 31.4343 35.2542C31.584 35.0753 32.411 34.2001 32.9422 32.8661C33.3497 31.8473 33.4848 30.6247 33.4848 30.1353V21.3474C33.5434 21.3796 34.2678 21.8347 34.2678 21.8347C34.2678 21.8347 35.3177 22.4733 36.9504 22.8888C38.1203 23.1863 39.6998 23.2482 39.6998 23.2482V19.9131C40.2403 20.0343 40.7009 20.067 40.9999 20.0369Z" fill="#EE1D52"/>
<path d="M39.7004 19.9131V23.2472C39.7004 23.2472 38.1209 23.1853 36.951 22.8878C35.3183 22.4718 34.2684 21.8336 34.2684 21.8336C34.2684 21.8336 33.544 21.3786 33.4854 21.3464V30.1363C33.4854 30.6257 33.3514 31.8484 32.9428 32.8672C32.4094 34.2011 31.5863 35.0763 31.4349 35.2552C31.4349 35.2552 30.4332 36.4384 28.6676 37.2351C27.0761 37.9538 25.6783 37.9356 25.26 37.9538C25.26 37.9538 22.8443 38.0495 20.6695 36.6365L20.6587 36.6287C20.4291 36.4064 20.2129 36.1716 20.0113 35.9256C19.3173 35.0795 18.8919 34.0789 18.785 33.7934C18.7849 33.7922 18.7849 33.7909 18.785 33.7897C18.613 33.2936 18.2517 32.1021 18.301 30.9481C18.3884 28.9121 19.1046 27.6624 19.294 27.3494C19.7955 26.4956 20.4479 25.7318 21.2219 25.0918C21.905 24.5396 22.6792 24.1002 23.5128 23.7917C24.414 23.4294 25.379 23.2353 26.3561 23.2196V26.5948C26.3561 26.5948 24.5687 26.0279 23.1384 27.0316C22.1384 27.7742 21.6077 28.4987 21.4514 29.7926C21.4449 30.7448 21.6885 32.0923 23.025 32.9909C23.1809 33.0897 23.3339 33.1775 23.484 33.2541C23.7175 33.5576 24.0017 33.822 24.3251 34.0368C25.6306 34.8631 26.7245 34.9209 28.1233 34.3842C29.0561 34.0253 29.7582 33.2166 30.0838 32.3206C30.2883 31.761 30.2856 31.1978 30.2856 30.6153V14.0463H33.5413C33.6759 14.8113 34.0481 15.9003 35.0324 16.9789C35.4272 17.3862 35.8719 17.7462 36.3569 18.0513C36.5001 18.1995 37.2327 18.9323 38.173 19.3821C38.6592 19.6146 39.1717 19.7928 39.7004 19.9131V19.9131Z" fill="black"/>
<path d="M17.4893 32.757V32.7596L17.57 32.9785C17.5608 32.953 17.5307 32.8755 17.4893 32.757Z" fill="#69C9D0"/>
<path d="M23.5128 23.7917C22.6792 24.1002 21.905 24.5396 21.2219 25.0918C20.4476 25.7333 19.7955 26.4987 19.2946 27.3541C19.1052 27.6661 18.389 28.9169 18.3016 30.9529C18.2522 32.1069 18.6136 33.2983 18.7856 33.7945C18.7854 33.7957 18.7854 33.7969 18.7856 33.7981C18.8941 34.081 19.3179 35.0816 20.0119 35.9303C20.2135 36.1764 20.4296 36.4111 20.6592 36.6334C19.9236 36.1458 19.2675 35.5562 18.7124 34.884C18.0243 34.0451 17.6 33.0549 17.4893 32.7627C17.4892 32.7606 17.4892 32.7585 17.4893 32.7564V32.7528C17.3168 32.2572 16.9543 31.0652 17.0048 29.9096C17.0921 27.8736 17.8084 26.6239 17.9977 26.3109C18.4985 25.4554 19.1507 24.6899 19.9251 24.0486C20.608 23.4962 21.3823 23.0568 22.216 22.7485C22.736 22.5417 23.2778 22.3891 23.8319 22.2934C24.6669 22.1537 25.5198 22.1416 26.3588 22.2575V23.2196C25.3808 23.235 24.4148 23.4291 23.5128 23.7917Z" fill="#69C9D0"/>
<path d="M33.544 14.0464H30.2883V30.6159C30.2883 31.1983 30.2883 31.76 30.0865 32.3211C29.7577 33.2167 29.0582 34.0253 28.126 34.3842C26.7266 34.923 25.6327 34.8632 24.3278 34.0368C24.0038 33.823 23.7189 33.5594 23.4846 33.2567C24.5964 33.8251 25.5915 33.8152 26.8243 33.341C27.756 32.9821 28.4565 32.1734 28.7842 31.2774C28.9893 30.7178 28.9866 30.1546 28.9866 29.5726V13H33.4821C33.4821 13 33.4317 13.4119 33.544 14.0464ZM39.7004 18.991V19.9131C39.1726 19.7926 38.661 19.6145 38.1757 19.3821C37.2353 18.9323 36.5028 18.1995 36.3596 18.0513C36.5258 18.1559 36.6983 18.2511 36.8761 18.3363C38.0194 18.8834 39.1453 19.0467 39.7004 18.991Z" fill="#69C9D0"/>
</g>
<path d="M21.4508 29.7926C21.6071 28.4987 22.1378 27.7742 23.1378 27.0316C24.5687 26.0258 26.356 26.5948 26.356 26.5948V23.2196C26.7905 23.2085 27.2252 23.2342 27.655 23.2966V27.6401C27.655 27.6401 25.8682 27.0711 24.4373 28.0774C23.4379 28.8196 22.9061 29.5445 22.7504 30.8384C22.7455 31.541 22.8774 32.4594 23.4845 33.2536C23.3344 33.1766 23.1814 33.0889 23.0255 32.9904C21.688 32.0923 21.4443 30.7448 21.4508 29.7926ZM35.035 16.9789C34.0507 15.9003 33.6785 14.8113 33.5439 14.0463H34.7822C34.7822 14.0463 34.5353 16.0522 36.3346 18.0248L36.3595 18.0513C35.8746 17.7462 35.4299 17.3862 35.035 16.9789ZM40.9999 20.0369V24.293C40.9999 24.293 39.4199 24.2311 38.2505 23.9336C36.6178 23.5176 35.5684 22.8795 35.5684 22.8795C35.5684 22.8795 34.8435 22.4244 34.7849 22.3927V31.1816C34.7849 31.671 34.6509 32.8932 34.2423 33.9125C33.7089 35.2459 32.8858 36.1211 32.7344 36.3C32.7344 36.3 31.7333 37.4832 29.9671 38.2799C28.3751 38.9986 26.9773 38.9804 26.5595 38.9986C26.5595 38.9986 24.1433 39.0943 21.969 37.6813C21.4989 37.3699 21.06 37.0171 20.6581 36.6277L20.6689 36.6355C22.8437 38.0485 25.2594 37.9528 25.2594 37.9528C25.6778 37.9346 27.0755 37.9528 28.667 37.2341C30.4315 36.4373 31.4343 35.2542 31.4343 35.2542C31.584 35.0753 32.411 34.2001 32.9422 32.8661C33.3497 31.8473 33.4848 30.6247 33.4848 30.1353V21.3474C33.5434 21.3796 34.2678 21.8347 34.2678 21.8347C34.2678 21.8347 35.3177 22.4733 36.9504 22.8888C38.1203 23.1863 39.6998 23.2482 39.6998 23.2482V19.9131C40.2403 20.0343 40.7009 20.067 40.9999 20.0369Z" fill="#EE1D52"/>
<path d="M39.7004 19.9131V23.2472C39.7004 23.2472 38.1209 23.1853 36.951 22.8878C35.3183 22.4718 34.2684 21.8336 34.2684 21.8336C34.2684 21.8336 33.544 21.3786 33.4854 21.3464V30.1363C33.4854 30.6257 33.3514 31.8484 32.9428 32.8672C32.4094 34.2011 31.5863 35.0763 31.4349 35.2552C31.4349 35.2552 30.4332 36.4384 28.6676 37.2351C27.0761 37.9538 25.6783 37.9356 25.26 37.9538C25.26 37.9538 22.8443 38.0495 20.6695 36.6365L20.6587 36.6287C20.4291 36.4064 20.2129 36.1716 20.0113 35.9256C19.3173 35.0795 18.8919 34.0789 18.785 33.7934C18.7849 33.7922 18.7849 33.7909 18.785 33.7897C18.613 33.2936 18.2517 32.1021 18.301 30.9481C18.3884 28.9121 19.1046 27.6624 19.294 27.3494C19.7955 26.4956 20.4479 25.7318 21.2219 25.0918C21.905 24.5396 22.6792 24.1002 23.5128 23.7917C24.414 23.4294 25.379 23.2353 26.3561 23.2196V26.5948C26.3561 26.5948 24.5687 26.0279 23.1384 27.0316C22.1384 27.7742 21.6077 28.4987 21.4514 29.7926C21.4449 30.7448 21.6885 32.0923 23.025 32.9909C23.1809 33.0897 23.3339 33.1775 23.484 33.2541C23.7175 33.5576 24.0017 33.822 24.3251 34.0368C25.6306 34.8631 26.7245 34.9209 28.1233 34.3842C29.0561 34.0253 29.7582 33.2166 30.0838 32.3206C30.2883 31.761 30.2856 31.1978 30.2856 30.6153V14.0463H33.5413C33.6759 14.8113 34.0481 15.9003 35.0324 16.9789C35.4272 17.3862 35.8719 17.7462 36.3569 18.0513C36.5001 18.1995 37.2327 18.9323 38.173 19.3821C38.6592 19.6146 39.1717 19.7928 39.7004 19.9131V19.9131Z" fill="white"/>
<path d="M17.4893 32.757V32.7596L17.57 32.9785C17.5608 32.953 17.5307 32.8755 17.4893 32.757Z" fill="#69C9D0"/>
<path d="M23.5128 23.7917C22.6792 24.1002 21.905 24.5396 21.2219 25.0918C20.4476 25.7333 19.7955 26.4987 19.2946 27.3541C19.1052 27.6661 18.389 28.9169 18.3016 30.9529C18.2522 32.1069 18.6136 33.2983 18.7856 33.7945C18.7854 33.7957 18.7854 33.7969 18.7856 33.7981C18.8941 34.081 19.3179 35.0816 20.0119 35.9303C20.2135 36.1764 20.4296 36.4111 20.6592 36.6334C19.9236 36.1458 19.2675 35.5562 18.7124 34.884C18.0243 34.0451 17.6 33.0549 17.4893 32.7627C17.4892 32.7606 17.4892 32.7585 17.4893 32.7564V32.7528C17.3168 32.2572 16.9543 31.0652 17.0048 29.9096C17.0921 27.8736 17.8084 26.6239 17.9977 26.3109C18.4985 25.4554 19.1507 24.6899 19.9251 24.0486C20.608 23.4962 21.3823 23.0568 22.216 22.7485C22.736 22.5417 23.2778 22.3891 23.8319 22.2934C24.6669 22.1537 25.5198 22.1416 26.3588 22.2575V23.2196C25.3808 23.235 24.4148 23.4291 23.5128 23.7917Z" fill="#69C9D0"/>
<path d="M33.544 14.0464H30.2883V30.6159C30.2883 31.1983 30.2883 31.76 30.0865 32.3211C29.7577 33.2167 29.0582 34.0253 28.126 34.3842C26.7266 34.923 25.6327 34.8632 24.3278 34.0368C24.0038 33.823 23.7189 33.5594 23.4846 33.2567C24.5964 33.8251 25.5915 33.8152 26.8243 33.341C27.756 32.9821 28.4565 32.1734 28.7842 31.2774C28.9893 30.7178 28.9866 30.1546 28.9866 29.5726V13H33.4821C33.4821 13 33.4317 13.4119 33.544 14.0464ZM39.7004 18.991V19.9131C39.1726 19.7926 38.661 19.6145 38.1757 19.3821C37.2353 18.9323 36.5028 18.1995 36.3596 18.0513C36.5258 18.1559 36.6983 18.2511 36.8761 18.3363C38.0194 18.8834 39.1453 19.0467 39.7004 18.991Z" fill="#69C9D0"/>
<g filter="url(#filter2_f_1_57)">
<ellipse cx="29.5" cy="49.5" rx="11.5" ry="6.5" fill="#28145D"/>
</g>
</g>
<rect x="5" y="2" width="48" height="48" rx="12" stroke="url(#paint1_linear_1_57)" stroke-opacity="0.5" stroke-width="0.8" shape-rendering="crispEdges"/>
</g>
<g style="mix-blend-mode:screen" filter="url(#filter3_f_1_57)">
<circle cx="22" cy="19" r="9" fill="white" fill-opacity="0.18"/>
</g>
</g>
<defs>
<filter id="filter0_bdi_1_57" x="-15.4" y="-18.4" width="92.8" height="88.8" filterUnits="userSpaceOnUse" color-interpolation-filters="sRGB">
<feFlood flood-opacity="0" result="BackgroundImageFix"/>
<feGaussianBlur in="BackgroundImageFix" stdDeviation="10"/>
<feComposite in2="SourceAlpha" operator="in" result="effect1_backgroundBlur_1_57"/>
<feColorMatrix in="SourceAlpha" type="matrix" values="0 0 0 0 0 0 0 0 0 0 0 0 0 0 0 0 0 0 127 0" result="hardAlpha"/>
<feOffset dx="8" dy="4"/>
<feGaussianBlur stdDeviation="8"/>
<feComposite in2="hardAlpha" operator="out"/>
<feColorMatrix type="matrix" values="0 0 0 0 0 0 0 0 0 0 0 0 0 0 0 0 0 0 0.08 0"/>
<feBlend mode="normal" in2="effect1_backgroundBlur_1_57" result="effect2_dropShadow_1_57"/>
<feBlend mode="normal" in="SourceGraphic" in2="effect2_dropShadow_1_57" result="shape"/>
<feColorMatrix in="SourceAlpha" type="matrix" values="0 0 0 0 0 0 0 0 0 0 0 0 0 0 0 0 0 0 127 0" result="hardAlpha"/>
<feOffset/>
<feGaussianBlur stdDeviation="4"/>
<feComposite in2="hardAlpha" operator="arithmetic" k2="-1" k3="1"/>
<feColorMatrix type="matrix" values="0 0 0 0 0.0323264 0 0 0 0 0.511567 0 0 0 0 0.554167 0 0 0 1 0"/>
<feBlend mode="normal" in2="shape" result="effect3_innerShadow_1_57"/>
</filter>
<filter id="filter1_f_1_57" x="1" y="-2" width="56" height="56" filterUnits="userSpaceOnUse" color-interpolation-filters="sRGB">
<feFlood flood-opacity="0" result="BackgroundImageFix"/>
<feBlend mode="normal" in="SourceGraphic" in2="BackgroundImageFix" result="shape"/>
<feGaussianBlur stdDeviation="6" result="effect1_foregroundBlur_1_57"/>
</filter>
<filter id="filter2_f_1_57" x="0" y="25" width="59" height="49" filterUnits="userSpaceOnUse" color-interpolation-filters="sRGB">
<feFlood flood-opacity="0" result="BackgroundImageFix"/>
<feBlend mode="normal" in="SourceGraphic" in2="BackgroundImageFix" result="shape"/>
<feGaussianBlur stdDeviation="9" result="effect1_foregroundBlur_1_57"/>
</filter>
<filter id="filter3_f_1_57" x="-7" y="-10" width="58" height="58" filterUnits="userSpaceOnUse" color-interpolation-filters="sRGB">
<feFlood flood-opacity="0" result="BackgroundImageFix"/>
<feBlend mode="normal" in="SourceGraphic" in2="BackgroundImageFix" result="shape"/>
<feGaussianBlur stdDeviation="10" result="effect1_foregroundBlur_1_57"/>
</filter>
<linearGradient id="paint0_linear_1_57" x1="5" y1="2" x2="53" y2="50" gradientUnits="userSpaceOnUse">
<stop stop-color="#F8FBFF"/>
<stop offset="1" stop-color="white" stop-opacity="0"/>
</linearGradient>
<linearGradient id="paint1_linear_1_57" x1="6" y1="1" x2="51.5" y2="50" gradientUnits="userSpaceOnUse">
<stop stop-color="#D8D8D8" stop-opacity="0.05"/>
<stop offset="1" stop-color="white" stop-opacity="0.4"/>
</linearGradient>
<clipPath id="clip0_1_57">
<rect width="58" height="51" fill="white"/>
</clipPath>
<clipPath id="clip1_1_57">
<rect x="5" y="2" width="48" height="48" rx="12" fill="white"/>
</clipPath>
</defs>
</svg>
