<svg width="58" height="51" viewBox="0 0 58 51" fill="none" xmlns="http://www.w3.org/2000/svg">
<g clip-path="url(#clip0_1_57)">
<rect width="58" height="51" fill="white"/>
<g filter="url(#filter0_bdi_1_57)">
<g clip-path="url(#clip1_1_57)">
<rect x="5" y="2" width="48" height="48" rx="12" fill="url(#paint0_linear_1_57)" fill-opacity="0.04" shape-rendering="crispEdges"/>
<g style="mix-blend-mode:plus-lighter" opacity="0.5" filter="url(#filter1_f_1_57)">
<path d="M15.2445 19.9411C15.373 17.9623 16.9639 16.4116 18.9445 16.3134C21.8124 16.1714 25.9115 16 29 16C32.0885 16 36.1876 16.1714 39.0555 16.3134C41.0361 16.4116 42.627 17.9623 42.7555 19.9411C42.8786 21.8369 43 24.1697 43 26C43 27.8303 42.8786 30.1631 42.7555 32.0589C42.627 34.0377 41.0361 35.5884 39.0555 35.6866C36.1876 35.8286 32.0885 36 29 36C25.9115 36 21.8124 35.8286 18.9445 35.6866C16.9639 35.5884 15.373 34.0377 15.2445 32.0589C15.1214 30.1631 15 27.8303 15 26C15 24.1697 15.1214 21.8369 15.2445 19.9411Z" fill="#FC0D1B"/>
<path d="M26 22V30L34 26L26 22Z" fill="white"/>
</g>
<path d="M15.2445 19.9411C15.373 17.9623 16.9639 16.4116 18.9445 16.3134C21.8124 16.1714 25.9115 16 29 16C32.0885 16 36.1876 16.1714 39.0555 16.3134C41.0361 16.4116 42.627 17.9623 42.7555 19.9411C42.8786 21.8369 43 24.1697 43 26C43 27.8303 42.8786 30.1631 42.7555 32.0589C42.627 34.0377 41.0361 35.5884 39.0555 35.6866C36.1876 35.8286 32.0885 36 29 36C25.9115 36 21.8124 35.8286 18.9445 35.6866C16.9639 35.5884 15.373 34.0377 15.2445 32.0589C15.1214 30.1631 15 27.8303 15 26C15 24.1697 15.1214 21.8369 15.2445 19.9411Z" fill="#FC0D1B"/>
<path d="M26 22V30L34 26L26 22Z" fill="white"/>
<g filter="url(#filter2_f_1_57)">
<ellipse cx="29.5" cy="49.5" rx="11.5" ry="6.5" fill="#2E176A"/>
</g>
</g>
<rect x="5" y="2" width="48" height="48" rx="12" stroke="url(#paint1_linear_1_57)" stroke-opacity="0.5" stroke-width="0.8" shape-rendering="crispEdges"/>
</g>
</g>
<defs>
<filter id="filter0_bdi_1_57" x="-15.4" y="-18.4" width="92.8" height="88.8" filterUnits="userSpaceOnUse" color-interpolation-filters="sRGB">
<feFlood flood-opacity="0" result="BackgroundImageFix"/>
<feGaussianBlur in="BackgroundImageFix" stdDeviation="10"/>
<feComposite in2="SourceAlpha" operator="in" result="effect1_backgroundBlur_1_57"/>
<feColorMatrix in="SourceAlpha" type="matrix" values="0 0 0 0 0 0 0 0 0 0 0 0 0 0 0 0 0 0 127 0" result="hardAlpha"/>
<feOffset dx="8" dy="4"/>
<feGaussianBlur stdDeviation="8"/>
<feComposite in2="hardAlpha" operator="out"/>
<feColorMatrix type="matrix" values="0 0 0 0 0 0 0 0 0 0 0 0 0 0 0 0 0 0 0.08 0"/>
<feBlend mode="normal" in2="effect1_backgroundBlur_1_57" result="effect2_dropShadow_1_57"/>
<feBlend mode="normal" in="SourceGraphic" in2="effect2_dropShadow_1_57" result="shape"/>
<feColorMatrix in="SourceAlpha" type="matrix" values="0 0 0 0 0 0 0 0 0 0 0 0 0 0 0 0 0 0 127 0" result="hardAlpha"/>
<feOffset/>
<feGaussianBlur stdDeviation="4"/>
<feComposite in2="hardAlpha" operator="arithmetic" k2="-1" k3="1"/>
<feColorMatrix type="matrix" values="0 0 0 0 0.988235 0 0 0 0 0.0509804 0 0 0 0 0.105882 0 0 0 0.32 0"/>
<feBlend mode="normal" in2="shape" result="effect3_innerShadow_1_57"/>
</filter>
<filter id="filter1_f_1_57" x="1" y="-2" width="56" height="56" filterUnits="userSpaceOnUse" color-interpolation-filters="sRGB">
<feFlood flood-opacity="0" result="BackgroundImageFix"/>
<feBlend mode="normal" in="SourceGraphic" in2="BackgroundImageFix" result="shape"/>
<feGaussianBlur stdDeviation="6" result="effect1_foregroundBlur_1_57"/>
</filter>
<filter id="filter2_f_1_57" x="0" y="25" width="59" height="49" filterUnits="userSpaceOnUse" color-interpolation-filters="sRGB">
<feFlood flood-opacity="0" result="BackgroundImageFix"/>
<feBlend mode="normal" in="SourceGraphic" in2="BackgroundImageFix" result="shape"/>
<feGaussianBlur stdDeviation="9" result="effect1_foregroundBlur_1_57"/>
</filter>
<linearGradient id="paint0_linear_1_57" x1="5" y1="2" x2="53" y2="50" gradientUnits="userSpaceOnUse">
<stop stop-color="#F8FBFF"/>
<stop offset="1" stop-color="white" stop-opacity="0"/>
</linearGradient>
<linearGradient id="paint1_linear_1_57" x1="6" y1="1" x2="51.5" y2="50" gradientUnits="userSpaceOnUse">
<stop stop-color="#D8D8D8" stop-opacity="0.05"/>
<stop offset="1" stop-color="white" stop-opacity="0.4"/>
</linearGradient>
<clipPath id="clip0_1_57">
<rect width="58" height="51" fill="white"/>
</clipPath>
<clipPath id="clip1_1_57">
<rect x="5" y="2" width="48" height="48" rx="12" fill="white"/>
</clipPath>
</defs>
</svg>
